<?xml version="1.0" encoding="utf-8"?>
<!-- Generator: Adobe Illustrator 15.0.0, SVG Export Plug-In . SVG Version: 6.00 Build 0)  -->
<!DOCTYPE svg PUBLIC "-//W3C//DTD SVG 1.1//EN" "http://www.w3.org/Graphics/SVG/1.1/DTD/svg11.dtd">
<svg version="1.1" id="Warstwa_1" xmlns="http://www.w3.org/2000/svg" xmlns:xlink="http://www.w3.org/1999/xlink" x="0px" y="0px"
	 width="333.511px" height="106.054px" viewBox="0 0 333.511 106.054" enable-background="new 0 0 333.511 106.054"
	 xml:space="preserve">
<path d="M45.394,91.644c0-1.15-0.904-2.084-2.027-2.084h-3.207c0.699,0.623,0.908,1.125,0.908,2.109v14.01h4.326v-6.775h4.926v6.775
	h4.314V89.607h-4.314v6.564h-4.926V91.644z"/>
<path d="M11.027,105.679h4.587c0,0-5.073-14.264-5.073-14.27c-0.571-1.6-1.801-1.85-2.194-1.85h-4.43
	c0.676,0.555,0.916,0.914,0.916,1.475c0,0.338-0.08,0.6-0.447,1.691L0,105.679h2.995l1.326-4.018h5.344L11.027,105.679z
	 M8.822,99.169H5.142l1.816-5.502L8.822,99.169z"/>
<path d="M29.616,103.398v-5.143c0-0.986-0.207-1.486-0.906-2.111l3.307,0.002c1.018,0,1.895,0.828,1.895,1.875v7.299
	c-1.613,0.473-3.25,0.734-4.746,0.734c-5.729,0-9.369-3.342-9.369-8.285c0-4.824,3.646-8.588,9.449-8.588
	c1.32,0,2.568,0.227,3.701,0.641v3.227c-1.016-0.674-2.301-1.074-3.701-1.074c-2.783,0-4.975,1.918-4.975,5.461
	c0,3.758,1.66,6.057,4.324,6.057C28.927,103.492,29.257,103.468,29.616,103.398z"/>
<path fill="#B10D28" d="M38.956,78.816c3.586-2.465,6.717-6.271,6.721-14.332V16.123h3.578v48.361
	C49.255,73.439,44.776,77.021,38.956,78.816z"/>
<path fill="#B10D28" d="M41.87,78.816c3.357-1.568,9.178-4.48,9.178-14.332V16.123h3.586v48.361
	C54.634,76.576,45.228,78.365,41.87,78.816z"/>
<path fill="#B10D28" d="M36.716,78.816c2.674-2.691,3.584-8.061,3.584-15.227V16.123h3.584v48.361
	C43.884,72.521,41.198,76.576,36.716,78.816z"/>
<path d="M19.255,0c3.583,2.465,6.719,6.271,6.719,14.33v55.525h3.586V14.33C29.56,5.373,25.082,1.793,19.255,0z"/>
<path d="M22.168,0c3.362,1.568,9.179,4.48,9.179,14.33v55.525h3.58V14.33C34.927,2.24,25.53,0.447,22.168,0z"/>
<path d="M17.013,0c2.678,2.688,3.584,8.061,3.584,15.225v54.63h3.588V14.33C24.185,6.295,21.495,2.24,17.013,0z"/>
<path fill="#00723F" d="M16.567,78.816c-3.578-2.465-6.715-6.271-6.715-14.332V16.123h-3.58v48.361
	C6.272,73.439,10.751,77.021,16.567,78.816z"/>
<path fill="#00723F" d="M13.653,78.816c-3.355-1.568-9.174-4.48-9.174-14.332V16.123H0.895v48.361
	C0.895,76.576,10.298,78.365,13.653,78.816z"/>
<path fill="#00723F" d="M18.804,78.816c-2.67-2.691-3.578-8.061-3.578-15.227V16.123h-3.582v48.361
	C11.644,72.521,14.331,76.576,18.804,78.816z"/>
<path d="M81.653,31.199l-0.526-2.452h-3.537l-0.521,2.452h-2.67l3.394-12.63h3.139l3.396,12.63H81.653z M80.046,23.658
	c-0.309-1.428-0.65-3.286-0.686-3.468c-0.019,0.109-0.38,1.949-0.687,3.468l-0.668,3.14h2.707L80.046,23.658z"/>
<path d="M86.421,31.199V21.095h2.526v10.104H86.421z M92.283,31.382l-3.14-5.505L92,21.095h2.903l-3.21,4.69l3.392,5.413
	L92.283,31.382z"/>
<path d="M103.718,31.199l-0.578-2.004h-3.427l-0.583,2.004h-2.669l3.34-10.104h3.249l3.342,10.104H103.718z M102.113,24.92
	c-0.398-1.409-0.668-2.476-0.686-2.562c-0.019,0.055-0.29,1.062-0.688,2.562l-0.666,2.417h2.707L102.113,24.92z"/>
<path d="M111.231,31.199h-2.746V21.095h2.746c3.537,0,5.74,0.522,5.74,5.052C116.971,30.518,114.768,31.199,111.231,31.199z
	 M111.823,22.971h-0.81v6.356h0.668c1.714,0,2.759-0.42,2.759-3.18C114.44,23.351,113.448,22.971,111.823,22.971z"/>
<path d="M126.699,23.113h-4.422v1.95h3.79v1.862h-3.79v2.255h4.514v2.018h-7.041V21.095h7.128L126.699,23.113z"/>
<path d="M138.048,31.199l-0.073-3.715c-0.019-1.336,0.146-3.267,0.146-3.267s-0.688,1.587-1.447,2.723l-1.803,2.691l-1.82-2.691
	c-0.724-1.062-1.428-2.705-1.428-2.705s0.159,1.913,0.146,3.25l-0.079,3.715h-2.507l0.435-10.104h2.041l3.212,5.358l3.268-5.358
	h1.986l0.43,10.104H138.048z"/>
<path d="M143.681,31.199V21.095h2.563v10.104H143.681z"/>
<path d="M155.592,31.199l-0.572-2.004h-3.432l-0.577,2.004h-2.673l3.342-10.104h3.248l3.337,10.104H155.592z M153.991,24.92
	c-0.397-1.409-0.668-2.476-0.69-2.562c-0.015,0.055-0.283,1.062-0.683,2.562l-0.669,2.417h2.71L153.991,24.92z"/>
<path d="M170.122,31.382c-2.324,0-4.818-0.649-4.818-6.319c0-5.652,3.016-6.677,5.523-6.677c1.807,0,2.964,0.65,2.964,0.65v2.022
	c0,0-1.683-0.632-2.964-0.632c-1.282,0-2.993,0.687-2.993,4.457c0,3.991,1.336,4.475,2.255,4.475c0.757,0,1.712-0.178,1.712-0.178
	v-3.812h-1.712l-0.183-1.931h4.426v7.294C174.332,30.733,172.108,31.382,170.122,31.382z"/>
<path d="M181.383,31.382c-1.968,0-4.512-0.705-4.512-5.235c0-4.53,2.563-5.235,4.512-5.235c1.931,0,4.513,0.706,4.513,5.235
	C185.896,30.677,183.314,31.382,181.383,31.382z M181.383,22.683c-1.264,0-1.985,0.92-1.985,3.464c0,2.42,0.722,3.41,1.985,3.41
	c1.263,0,1.985-0.939,1.985-3.41C183.369,23.585,182.646,22.683,181.383,22.683z M182.198,20.011h-2.384l2.128-2.888h3.033
	L182.198,20.011z"/>
<path d="M194.013,31.199l-0.613-2.146c-0.324-1.139-0.54-1.409-0.846-1.766l-1.447,0.086v3.825h-2.529V21.095h3.468
	c2.709,0,4.659,0.467,4.659,2.975c0,1.844-0.814,2.365-2.042,2.746c0.435,0.178,0.853,0.705,1.136,1.478l1.084,2.905H194.013z
	 M191.922,23.008h-0.815v2.691c2.042,0,3.071-0.22,3.071-1.501C194.178,23.278,193.528,23.008,191.922,23.008z"/>
<path d="M205.403,31.199l-2.549-4.617c-0.522-0.938-1.135-2.348-1.227-2.544c0.036,0.16,0.289,1.895,0.289,3.391v3.77h-2.53V21.095
	h2.604l2.348,4.169c0.668,1.171,1.295,2.759,1.295,2.759s-0.284-2.037-0.284-3.428v-3.5h2.526v10.104H205.403z"/>
<path d="M211.11,31.199V21.095h2.563v10.104H211.11z"/>
<path d="M220.739,31.382c-1.858,0-4.298-0.649-4.298-5.235c0-4.622,3.216-5.235,4.622-5.235c1.568,0,2.42,0.453,2.42,0.453v1.986
	c0,0-1.249-0.435-2.347-0.435c-0.938,0-2.165,0.485-2.165,3.23c0,2.435,0.847,3.212,1.949,3.212c1.227,0,2.563-0.452,2.563-0.452
	v1.986C223.483,30.893,222.38,31.382,220.739,31.382z"/>
<path d="M232.434,31.199h-7.093v-1.821l4.278-6.228h-4.278v-2.055h7.217v1.821l-4.274,6.227h4.329L232.434,31.199z"/>
<path d="M238.923,31.382c-1.964,0-4.512-0.705-4.512-5.235c0-4.53,2.562-5.235,4.512-5.235c1.936,0,4.513,0.706,4.513,5.235
	C243.436,30.677,240.859,31.382,238.923,31.382z M238.923,22.683c-1.259,0-1.981,0.92-1.981,3.464c0,2.42,0.723,3.41,1.981,3.41
	c1.268,0,1.986-0.939,1.986-3.41C240.91,23.585,240.191,22.683,238.923,22.683z"/>
<path d="M245.989,26.325v-2.343h7.222v2.343H245.989z"/>
<path d="M262.293,31.199v-5.811h-3.615v5.811h-2.526v-12.63h2.526v4.87h3.615v-4.87h2.526v12.63H262.293z"/>
<path d="M272.078,31.382c-3.177,0-4.114-1.336-4.114-4.082v-6.205h2.525v6.192c0,1.55,0.439,2.164,1.589,2.164
	c1.089,0,1.592-0.576,1.592-2.164v-6.192h2.525V27.3C276.195,29.881,275.134,31.382,272.078,31.382z"/>
<path d="M286.621,23.168h-2.783v8.03h-2.526v-8.03h-3.07v-2.073h8.667L286.621,23.168z"/>
<path d="M294.825,31.199l-2.548-4.617c-0.522-0.938-1.136-2.348-1.228-2.544c0.037,0.16,0.288,1.895,0.288,3.391v3.77h-2.524V21.095
	h2.598l2.348,4.169c0.668,1.171,1.3,2.759,1.3,2.759s-0.288-2.037-0.288-3.428v-3.5h2.525v10.104H294.825z"/>
<path d="M300.531,31.199V21.095h2.563v10.104H300.531z"/>
<path d="M310.159,31.382c-1.857,0-4.297-0.649-4.297-5.235c0-4.622,3.218-5.235,4.622-5.235c1.574,0,2.421,0.453,2.421,0.453v1.986
	c0,0-1.244-0.435-2.348-0.435c-0.934,0-2.164,0.485-2.164,3.23c0,2.435,0.846,3.212,1.95,3.212c1.226,0,2.562-0.452,2.562-0.452
	v1.986C312.905,30.893,311.802,31.382,310.159,31.382z"/>
<path d="M321.851,31.199h-7.093v-1.821l4.283-6.228h-4.283v-2.055h7.221v1.821l-4.278,6.227h4.334L321.851,31.199z"/>
<path d="M330.838,31.199l-0.576-2.004h-3.428l-0.581,2.004h-2.673l3.341-10.104h3.249l3.341,10.104H330.838z M329.233,24.92
	c-0.394-1.409-0.668-2.476-0.687-2.562c-0.019,0.055-0.288,1.062-0.683,2.562l-0.667,2.417h2.704L329.233,24.92z"/>
<path d="M75.841,52.693V42.584h2.563v10.109H75.841z"/>
<path d="M90.373,52.693l-0.071-3.721c-0.018-1.336,0.146-3.267,0.146-3.267s-0.688,1.587-1.446,2.728l-1.807,2.686l-1.819-2.686
	c-0.723-1.068-1.428-2.709-1.428-2.709s0.162,1.913,0.144,3.249l-0.073,3.721h-2.507l0.434-10.109h2.042l3.208,5.359l3.269-5.359
	h1.986l0.432,10.109H90.373z"/>
<path d="M97.684,53.233c-1.047,0-1.822-0.846-1.822-1.857c0-1.017,0.795-1.845,1.822-1.845c1.047,0,1.805,0.85,1.805,1.845
	C99.489,52.369,98.731,53.233,97.684,53.233z"/>
<path d="M110.535,52.872c-1.606,0-2.995-0.453-2.995-0.453v-2.166c0,0,1.767,0.544,2.632,0.544c1.031,0,1.95-0.306,1.95-1.537
	c0-1.116-0.646-1.465-1.514-1.95l-1.14-0.631c-1.063-0.595-2.039-1.515-2.039-3.304c0-2.759,2.275-3.501,3.937-3.501
	c1.769,0,2.743,0.486,2.743,0.486v2.058c0,0-1.352-0.521-2.564-0.521c-0.902,0-1.623,0.325-1.623,1.332
	c0,0.889,0.58,1.25,1.315,1.666l1.085,0.591c1.154,0.636,2.33,1.555,2.33,3.684C114.652,52.258,112.34,52.872,110.535,52.872z"/>
<path d="M124.312,44.658h-2.78v8.035h-2.529v-8.035h-3.067v-2.074h8.664L124.312,44.658z"/>
<path d="M131.65,52.693l-0.576-2.005h-3.428l-0.577,2.005h-2.67l3.339-10.109h3.244l3.341,10.109H131.65z M130.048,46.41
	c-0.397-1.409-0.668-2.47-0.687-2.563c-0.022,0.051-0.288,1.066-0.687,2.563l-0.667,2.421h2.703L130.048,46.41z"/>
<path d="M142.432,52.693l-2.549-4.622c-0.521-0.943-1.135-2.348-1.227-2.545c0.036,0.16,0.293,1.895,0.293,3.391v3.775h-2.531
	V42.584h2.6l2.347,4.169c0.669,1.172,1.3,2.764,1.3,2.764s-0.287-2.041-0.287-3.432v-3.501h2.525v10.109H142.432z"/>
<path d="M148.137,52.693V42.584h2.563v10.109H148.137z"/>
<path d="M156.348,52.872c-1.461,0-2.993-0.503-2.993-0.503v-2.078c0,0,1.821,0.576,2.814,0.576c1.103,0,1.771-0.201,1.771-1.062
	c0-0.704-0.54-0.923-1.245-1.193l-0.924-0.362c-1.153-0.454-2.347-1.154-2.347-2.815c0-2.581,2.08-3.034,3.938-3.034
	c1.711,0,2.742,0.521,2.742,0.521v1.973c0,0-1.41-0.558-2.563-0.558c-1.061,0-1.623,0.229-1.623,0.897
	c0,0.649,0.576,0.887,1.335,1.176l0.884,0.343c1.175,0.453,2.329,1.103,2.329,2.87C160.466,52.616,158.155,52.872,156.348,52.872z"
	/>
<path d="M169.225,52.693h-5.775v-4.242l-1.172,0.705V47.33l1.172-0.705v-4.04h2.525v2.545l2.078-1.245v1.821l-2.078,1.244v3.685
	h3.482L169.225,52.693z"/>
<path d="M178.057,52.693l-0.576-2.005h-3.429l-0.581,2.005h-2.667l3.34-10.109h3.245l3.339,10.109H178.057z M176.45,46.41
	c-0.397-1.409-0.668-2.47-0.687-2.563c-0.018,0.051-0.287,1.066-0.686,2.563l-0.669,2.421h2.709L176.45,46.41z"/>
<path d="M193.83,52.693h-3.432l-0.987-4.873c-0.257-1.196-0.76-3.867-0.797-4.138c-0.055,0.271-0.522,2.925-0.778,4.138
	l-1.011,4.873h-3.428l-2.096-10.109h2.851l0.581,5.052c0.16,1.519,0.362,3.647,0.381,3.807c0.014-0.109,0.342-2.22,0.681-3.807
	l1.053-5.052h3.537l1.08,5.052c0.288,1.354,0.65,3.593,0.687,3.807c0.015-0.16,0.252-2.471,0.397-3.807l0.522-5.052h2.855
	L193.83,52.693z"/>
<path d="M203.751,52.693l-0.576-2.005h-3.433l-0.576,2.005h-2.668l3.336-10.109h3.249l3.336,10.109H203.751z M202.144,46.41
	c-0.397-1.409-0.668-2.47-0.681-2.563c-0.023,0.051-0.293,1.066-0.691,2.563l-0.667,2.421h2.708L202.144,46.41z"/>
<path d="M216.203,52.872c-1.601,0-2.993-0.453-2.993-0.453v-2.166c0,0,1.768,0.544,2.637,0.544c1.024,0,1.949-0.306,1.949-1.537
	c0-1.116-0.65-1.465-1.515-1.95l-1.14-0.631c-1.062-0.595-2.037-1.515-2.037-3.304c0-2.759,2.271-3.501,3.937-3.501
	c1.767,0,2.74,0.486,2.74,0.486v2.058c0,0-1.354-0.521-2.563-0.521c-0.905,0-1.629,0.325-1.629,1.332
	c0,0.889,0.581,1.25,1.323,1.666l1.08,0.591c1.157,0.636,2.328,1.555,2.328,3.684C220.321,52.258,218.015,52.872,216.203,52.872z"/>
<path d="M229.981,44.658h-2.782v8.035h-2.525v-8.035h-3.066v-2.074h8.663L229.981,44.658z"/>
<path d="M237.322,52.693l-0.572-2.005h-3.432l-0.576,2.005h-2.674l3.342-10.109h3.248l3.337,10.109H237.322z M235.72,46.41
	c-0.397-1.409-0.668-2.47-0.687-2.563c-0.018,0.051-0.287,1.066-0.687,2.563l-0.669,2.421h2.71L235.72,46.41z"/>
<path d="M244.62,52.872c-1.459,0-2.997-0.503-2.997-0.503v-2.078c0,0,1.822,0.576,2.819,0.576c1.1,0,1.768-0.201,1.768-1.062
	c0-0.704-0.54-0.923-1.246-1.193l-0.92-0.362c-1.157-0.454-2.348-1.154-2.348-2.815c0-2.581,2.078-3.034,3.937-3.034
	c1.711,0,2.74,0.521,2.74,0.521v1.973c0,0-1.405-0.558-2.563-0.558c-1.062,0-1.624,0.229-1.624,0.897
	c0,0.649,0.576,0.887,1.337,1.176l0.882,0.343c1.176,0.453,2.329,1.103,2.329,2.87C248.734,52.616,246.423,52.872,244.62,52.872z"/>
<path d="M257.791,52.693h-7.093v-1.827l4.283-6.223h-4.283v-2.059h7.221v1.821l-4.278,6.228h4.333L257.791,52.693z"/>
<path d="M260.504,52.693V42.584h2.563v10.109H260.504z"/>
<path d="M270.137,52.872c-1.862,0-4.297-0.649-4.297-5.235c0-4.623,3.217-5.236,4.621-5.236c1.575,0,2.416,0.454,2.416,0.454v1.986
	c0,0-1.24-0.435-2.348-0.435c-0.933,0-2.163,0.489-2.163,3.231c0,2.438,0.85,3.211,1.948,3.211c1.232,0,2.563-0.448,2.563-0.448
	v1.987C272.877,52.387,271.78,52.872,270.137,52.872z"/>
<path d="M281.66,52.693l-0.577-2.005h-3.428l-0.58,2.005h-2.673l3.341-10.109h3.248l3.341,10.109H281.66z M280.048,46.41
	c-0.394-1.409-0.663-2.47-0.682-2.563c-0.018,0.051-0.293,1.066-0.686,2.563l-0.669,2.421h2.704L280.048,46.41z"/>
<path d="M87.103,74.179h-3.428l-0.993-4.869c-0.252-1.195-0.76-3.863-0.796-4.14c-0.053,0.276-0.521,2.926-0.775,4.14l-1.012,4.869
	h-3.43l-2.091-10.104h2.851l0.577,5.056c0.162,1.509,0.361,3.643,0.38,3.808c0.018-0.109,0.343-2.22,0.686-3.808l1.046-5.056h3.539
	l1.085,5.056c0.284,1.351,0.647,3.589,0.682,3.808c0.021-0.165,0.254-2.476,0.398-3.808l0.524-5.056h2.853L87.103,74.179z"/>
<path d="M96.959,74.179V61.547h2.524v12.632H96.959z M102.822,74.36l-3.14-7.037l2.908-5.775h2.852l-3.249,5.666l3.43,6.966
	L102.822,74.36z"/>
<path d="M113.201,74.179l-0.612-2.148c-0.328-1.134-0.546-1.403-0.85-1.765l-1.446,0.087v3.826h-2.525V64.075h3.466
	c2.704,0,4.654,0.466,4.654,2.974c0,1.843-0.812,2.367-2.036,2.746c0.433,0.178,0.846,0.705,1.137,1.482l1.082,2.902H113.201z
	 M111.104,65.987h-0.812v2.69c2.041,0,3.068-0.215,3.068-1.496C113.361,66.257,112.712,65.987,111.104,65.987z"/>
<path d="M124.941,74.179l-0.574-2.002h-3.433l-0.577,2.002h-2.669l3.338-10.104h3.249l3.339,10.104H124.941z M123.336,67.9
	c-0.397-1.41-0.667-2.472-0.688-2.564c-0.017,0.056-0.287,1.068-0.685,2.564l-0.669,2.42h2.709L123.336,67.9z"/>
<path d="M129.709,74.179V64.075h2.527v10.104H129.709z M135.577,74.36l-3.145-5.506l2.853-4.779h2.91l-3.218,4.693l3.396,5.411
	L135.577,74.36z"/>
<path d="M143.978,74.36c-1.967,0-4.512-0.702-4.512-5.229c0-4.534,2.563-5.239,4.512-5.239c1.932,0,4.512,0.705,4.512,5.239
	C148.49,73.658,145.91,74.36,143.978,74.36z M143.978,65.662c-1.263,0-1.985,0.919-1.985,3.469c0,2.416,0.723,3.41,1.985,3.41
	c1.264,0,1.987-0.938,1.987-3.41C145.965,66.564,145.242,65.662,143.978,65.662z"/>
<path d="M162.483,74.179h-3.427l-0.993-4.869c-0.256-1.195-0.759-3.863-0.796-4.14c-0.055,0.276-0.521,2.926-0.772,4.14
	l-1.013,4.869h-3.432l-2.091-10.104h2.852l0.576,5.056c0.164,1.509,0.361,3.643,0.38,3.808c0.018-0.109,0.342-2.22,0.686-3.808
	l1.048-5.056h3.537l1.08,5.056c0.293,1.351,0.655,3.589,0.687,3.808c0.019-0.165,0.257-2.476,0.398-3.808l0.521-5.056h2.855
	L162.483,74.179z"/>
<path d="M166.768,74.179V64.075h2.563v10.104H166.768z"/>
<path d="M179.512,66.096h-4.421v1.95h3.789v1.857h-3.789v2.255h4.512v2.021h-7.038V64.075h7.13L179.512,66.096z"/>
</svg>
