<?xml version="1.0" encoding="utf-8"?>
<!-- Generator: Adobe Illustrator 15.0.0, SVG Export Plug-In . SVG Version: 6.00 Build 0)  -->
<!DOCTYPE svg PUBLIC "-//W3C//DTD SVG 1.1//EN" "http://www.w3.org/Graphics/SVG/1.1/DTD/svg11.dtd">
<svg version="1.1" id="Layer_1" xmlns="http://www.w3.org/2000/svg" xmlns:xlink="http://www.w3.org/1999/xlink" x="0px" y="0px"
	 width="38px" height="37px" viewBox="0 0 38 37" enable-background="new 0 0 38 37" xml:space="preserve">
<circle fill="#E6E6E6" cx="19" cy="18.5" r="18.5"/>
<circle fill="#F7F7F7" cx="19" cy="18.5" r="14.854"/>
<g>
	<g>
		<g>
			<g>
				<defs>
					<rect id="SVGID_1_" x="6.167" y="9.461" width="23.667" height="16.385"/>
				</defs>
				<clipPath id="SVGID_2_">
					<use xlink:href="#SVGID_1_"  overflow="visible"/>
				</clipPath>
				<g clip-path="url(#SVGID_2_)">
					<path fill="#F98012" d="M26.051,25.846v-7.537c0-1.576-0.641-2.364-1.923-2.364c-1.28-0.001-1.924,0.787-1.926,2.364v7.537
						h-3.786v-7.537c0-1.576-0.631-2.364-1.893-2.364c-1.284,0-1.925,0.788-1.922,2.364v7.537h-3.787v-7.981
						c0-1.646,0.563-2.89,1.689-3.734c0.991-0.754,2.332-1.132,4.021-1.132c1.711,0,2.974,0.446,3.785,1.336
						c0.697-0.891,1.974-1.336,3.818-1.336c1.688,0,3.027,0.377,4.02,1.132c1.125,0.844,1.688,2.089,1.689,3.734v7.981H26.051z"/>
					<path fill="#333333" d="M18.164,12.417l3.76-2.785l-0.05-0.17c-6.781,0.843-9.865,1.441-15.707,4.875l0.054,0.156l0.464,0.005
						c-0.042,0.474-0.117,1.646-0.022,3.409c-0.648,1.903-0.017,3.194,0.577,4.6c0.094-1.462,0.084-3.063-0.358-4.657
						c-0.093-1.75-0.017-2.902,0.025-3.35l3.872,0.038c-0.01,0.769,0.028,1.538,0.115,2.302c3.46,1.233,6.94-0.004,8.788-3.044
						C19.169,13.212,18.164,12.417,18.164,12.417z"/>
				</g>
			</g>
		</g>
	</g>
</g>
</svg>
