<?xml version="1.0" encoding="utf-8"?>
<!-- Generator: Adobe Illustrator 15.0.0, SVG Export Plug-In . SVG Version: 6.00 Build 0)  -->
<!DOCTYPE svg PUBLIC "-//W3C//DTD SVG 1.1//EN" "http://www.w3.org/Graphics/SVG/1.1/DTD/svg11.dtd">
<svg version="1.1" id="Layer_1" xmlns="http://www.w3.org/2000/svg" xmlns:xlink="http://www.w3.org/1999/xlink" x="0px" y="0px"
	 width="375.745px" height="231px" viewBox="0 0 375.745 231" enable-background="new 0 0 375.745 231" xml:space="preserve">
<path fill="#00949D" d="M51.8,107.4c-16.104,0-28.65-4.35-37.65-13.051c-9-8.699-13.5-20.9-13.5-36.6V0h35.4v56.699
	c0,8,1.45,13.701,4.35,17.103c2.9,3.299,6.802,4.949,11.7,4.949c5,0,8.9-1.65,11.7-4.949c2.896-3.4,4.35-9.103,4.35-17.103V0h34.802
	v57.75c0,15.699-4.5,27.9-13.5,36.6C80.45,103.051,67.9,107.4,51.8,107.4z M126.678,105V0h50.549c9.801,0,18.25,1.6,25.351,4.8
	c7.199,3.2,12.75,7.8,16.648,13.8c3.9,5.9,5.852,12.9,5.852,21s-1.948,15.099-5.852,21c-3.898,5.901-9.449,10.5-16.648,13.801
	c-7.101,3.199-15.55,4.799-25.351,4.799h-30.898l15.75-15.147V105H126.678z M162.076,67.949L146.326,51.9h28.648
	c4.9,0,8.5-1.1,10.801-3.3c2.4-2.2,3.602-5.2,3.602-9c0-3.8-1.199-6.8-3.602-9c-2.301-2.2-5.898-3.3-10.801-3.3h-28.648l15.75-16.05
	V67.949z"/>
<path fill="#00949D" d="M231.703,174c-10,0-18.75-1.85-26.25-5.551c-7.4-3.699-13.15-8.75-17.25-15.148
	c-4.104-6.5-6.15-13.801-6.15-21.9c0-8.301,2-15.647,6-22.048c4.1-6.4,9.65-11.4,16.65-15c7.1-3.6,15.049-5.4,23.85-5.4
	c8.1,0,15.549,1.603,22.35,4.801c6.9,3.199,12.4,7.949,16.5,14.25c4.199,6.301,6.304,14.103,6.304,23.397
	c0,1.199-0.054,2.551-0.149,4.051c-0.101,1.398-0.201,2.699-0.302,3.898h-63.149V123h45.149l-12.75,4.35
	c0-3.199-0.603-5.898-1.799-8.1c-1.104-2.301-2.649-4.051-4.649-5.25c-2-1.301-4.398-1.949-7.201-1.949
	c-2.799,0-5.25,0.647-7.351,1.949c-2,1.199-3.549,2.949-4.649,5.25c-1.101,2.199-1.646,4.9-1.646,8.1v5.102c0,3.5,0.699,6.5,2.1,9
	c1.401,2.5,3.4,4.398,6,5.699c2.602,1.199,5.75,1.801,9.449,1.801c3.801,0,6.9-0.5,9.301-1.5c2.5-1,5.102-2.5,7.799-4.5
	l17.701,17.854c-4,4.299-8.951,7.601-14.85,9.896C246.902,172.9,239.902,174,231.703,174z M292.951,172.5v-105h35.396v77.551h47.397
	V172.5H292.951z"/>
</svg>
