<?xml version="1.0" encoding="utf-8"?>
<!-- Generator: Adobe Illustrator 15.0.0, SVG Export Plug-In . SVG Version: 6.00 Build 0)  -->
<!DOCTYPE svg PUBLIC "-//W3C//DTD SVG 1.1//EN" "http://www.w3.org/Graphics/SVG/1.1/DTD/svg11.dtd">
<svg version="1.1" id="Layer_1" xmlns="http://www.w3.org/2000/svg" xmlns:xlink="http://www.w3.org/1999/xlink" x="0px" y="0px"
	 width="713.799px" height="231px" viewBox="0 0 713.799 231" enable-background="new 0 0 713.799 231" xml:space="preserve">
<path fill="#00949D" d="M51.8,107.4c-16.103,0-28.65-4.35-37.65-13.051c-9-8.699-13.5-20.9-13.5-36.6V0h35.4v56.699
	c0,8,1.45,13.701,4.35,17.103c2.9,3.299,6.801,4.949,11.7,4.949c5,0,8.9-1.65,11.7-4.949c2.897-3.4,4.35-9.103,4.35-17.103V0h34.801
	v57.75c0,15.699-4.5,27.9-13.5,36.6C80.45,103.051,67.9,107.4,51.8,107.4z M126.678,105V0h50.549c9.801,0,18.25,1.6,25.35,4.8
	c7.2,3.2,12.75,7.8,16.649,13.8c3.9,5.9,5.851,12.9,5.851,21s-1.948,15.099-5.851,21c-3.899,5.901-9.449,10.5-16.649,13.801
	c-7.1,3.199-15.549,4.799-25.35,4.799h-30.899l15.75-15.147V105H126.678z M162.076,67.949L146.326,51.9h28.649
	c4.9,0,8.5-1.1,10.801-3.3c2.4-2.2,3.601-5.2,3.601-9c0-3.8-1.199-6.8-3.601-9c-2.301-2.2-5.899-3.3-10.801-3.3h-28.649l15.75-16.05
	V67.949z"/>
<path fill="#00949D" d="M231.703,174c-10,0-18.75-1.85-26.25-5.551c-7.4-3.699-13.15-8.75-17.25-15.148
	c-4.103-6.5-6.15-13.801-6.15-21.9c0-8.301,2-15.648,6-22.049c4.1-6.4,9.65-11.4,16.65-15c7.1-3.6,15.049-5.4,23.85-5.4
	c8.1,0,15.549,1.603,22.35,4.801c6.9,3.199,12.4,7.949,16.5,14.25c4.199,6.301,6.303,14.102,6.303,23.398
	c0,1.199-0.053,2.55-0.149,4.05c-0.101,1.399-0.201,2.7-0.302,3.899h-63.149V123h45.149l-12.75,4.35c0-3.199-0.602-5.899-1.799-8.1
	c-1.104-2.301-2.649-4.051-4.649-5.25c-2-1.301-4.399-1.949-7.201-1.949c-2.799,0-5.25,0.647-7.351,1.949
	c-2,1.199-3.549,2.949-4.649,5.25c-1.101,2.199-1.647,4.9-1.647,8.1v5.101c0,3.5,0.699,6.5,2.1,9c1.401,2.5,3.4,4.399,6,5.7
	c2.601,1.199,5.75,1.8,9.449,1.8c3.801,0,6.9-0.5,9.301-1.5c2.5-1,5.101-2.5,7.799-4.5l17.701,17.854
	c-4,4.299-8.951,7.6-14.85,9.896C246.902,172.9,239.902,174,231.703,174z M292.951,172.5v-105h35.397v77.551h47.398V172.5H292.951z"
	/>
<path fill="#5B5A5A" d="M423.121,73.412c-3.714,0-6.638-1.064-8.763-3.19c-2.13-2.126-3.19-5.238-3.19-9.332V44.818h4.039v15.911
	c0,3.151,0.687,5.455,2.059,6.91c1.4,1.45,3.366,2.177,5.896,2.177c2.561,0,4.523-0.727,5.896-2.177
	c1.4-1.456,2.102-3.759,2.102-6.91V44.818h3.917V60.89c0,4.094-1.064,7.206-3.189,9.332
	C429.786,72.348,426.865,73.412,423.121,73.412z M452.118,73.329c-2.18,0-4.133-0.469-5.854-1.412
	c-1.7-0.942-3.028-2.232-3.995-3.876c-0.971-1.641-1.456-3.526-1.456-5.655c0-2.126,0.482-4.01,1.456-5.656
	c0.967-1.641,2.3-2.919,3.995-3.834c1.724-0.943,3.674-1.414,5.854-1.414c1.939,0,3.663,0.388,5.17,1.172
	c1.537,0.751,2.723,1.888,3.558,3.392l-2.947,1.899c-0.704-1.053-1.559-1.816-2.584-2.304c-0.994-0.512-2.071-0.768-3.234-0.768
	c-1.396,0-2.65,0.311-3.75,0.931c-1.105,0.618-1.98,1.494-2.629,2.622c-0.646,1.105-0.969,2.426-0.969,3.96
	c0,1.534,0.322,2.867,0.969,3.997c0.644,1.134,1.521,2.008,2.629,2.629c1.104,0.619,2.354,0.927,3.75,0.927
	c1.158,0,2.236-0.24,3.234-0.726c1.025-0.513,1.885-1.293,2.584-2.342l2.947,1.857c-0.835,1.479-2.021,2.626-3.558,3.431
	C455.781,72.941,454.059,73.329,452.118,73.329z M463.529,73.089v-2.505l13.729-17.042l0.77,1.333H463.77v-3.191h17.365v2.544
	l-13.729,17.003l-0.893-1.333h14.942v3.19L463.529,73.089L463.529,73.089z M495.865,73.329c-2.29,0-4.31-0.469-6.057-1.412
	c-1.726-0.942-3.073-2.232-4.039-3.876c-0.945-1.641-1.416-3.526-1.416-5.655c0-2.126,0.459-4.01,1.372-5.656
	c0.946-1.641,2.225-2.919,3.838-3.834c1.641-0.943,3.486-1.414,5.533-1.414c2.075,0,3.905,0.46,5.494,1.375
	c1.586,0.913,2.824,2.208,3.716,3.877c0.914,1.642,1.374,3.569,1.374,5.773c0,0.163-0.02,0.351-0.041,0.565
	c0,0.216-0.018,0.418-0.044,0.607h-18.213V60.89h16.191L502,61.861c0.028-1.372-0.256-2.599-0.848-3.676
	c-0.59-1.076-1.412-1.91-2.465-2.504c-1.021-0.619-2.221-0.927-3.593-0.927c-1.349,0-2.544,0.308-3.593,0.927
	c-1.054,0.594-1.873,1.442-2.466,2.546c-0.593,1.077-0.888,2.313-0.888,3.718v0.646c0,1.426,0.323,2.706,0.968,3.834
	c0.675,1.104,1.604,1.968,2.791,2.587c1.185,0.619,2.544,0.927,4.077,0.927c1.269,0,2.41-0.213,3.438-0.646
	c1.049-0.43,1.963-1.077,2.743-1.937l2.143,2.504c-0.97,1.128-2.181,1.99-3.636,2.582C499.241,73.034,497.641,73.329,495.865,73.329
	z M511.062,73.089V43.123h3.877v29.966H511.062z M533.772,51.481c1.747,0,3.285,0.337,4.601,1.01
	c1.347,0.675,2.398,1.696,3.152,3.07c0.754,1.373,1.132,3.112,1.132,5.21v12.317h-3.878V61.217c0-2.074-0.511-3.636-1.536-4.686
	c-0.995-1.048-2.411-1.574-4.24-1.574c-1.373,0-2.57,0.268-3.593,0.805c-1.024,0.541-1.818,1.333-2.382,2.386
	c-0.542,1.049-0.81,2.355-0.81,3.916v11.024h-3.877V51.685h3.715v5.776l-0.606-1.536c0.7-1.401,1.778-2.491,3.233-3.274
	C530.135,51.87,531.831,51.481,533.772,51.481z M549.83,73.089V51.681h3.877v21.408H549.83z M551.768,47.567
	c-0.752,0-1.385-0.245-1.896-0.729c-0.484-0.481-0.726-1.075-0.726-1.775c0-0.725,0.24-1.333,0.726-1.817
	c0.513-0.485,1.146-0.726,1.896-0.726c0.753,0,1.375,0.241,1.859,0.726c0.511,0.457,0.768,1.036,0.768,1.734
	c0,0.73-0.242,1.349-0.726,1.858C553.184,47.323,552.549,47.567,551.768,47.567z M574.398,73.089v-4.523l-0.201-0.849v-7.71
	c0-1.645-0.485-2.911-1.456-3.801c-0.945-0.913-2.373-1.374-4.281-1.374c-1.266,0-2.5,0.217-3.717,0.646
	c-1.214,0.403-2.23,0.955-3.071,1.657l-1.612-2.907c1.104-0.889,2.422-1.563,3.956-2.019c1.562-0.486,3.188-0.728,4.887-0.728
	c2.936,0,5.197,0.716,6.784,2.144c1.588,1.427,2.385,3.608,2.385,6.541v12.923H574.398z M567.37,73.329
	c-1.589,0-2.989-0.268-4.2-0.805c-1.185-0.54-2.099-1.282-2.744-2.225c-0.646-0.966-0.97-2.06-0.97-3.269
	c0-1.158,0.271-2.208,0.808-3.151c0.563-0.945,1.469-1.698,2.704-2.264c1.268-0.564,2.964-0.847,5.093-0.847h6.783v2.787h-6.621
	c-1.937,0-3.247,0.324-3.917,0.969c-0.675,0.646-1.01,1.428-1.01,2.341c0,1.053,0.419,1.897,1.25,2.545
	c0.838,0.621,1.991,0.931,3.476,0.931c1.452,0,2.716-0.321,3.796-0.969c1.104-0.646,1.898-1.589,2.384-2.828l0.766,2.666
	c-0.508,1.267-1.411,2.276-2.705,3.029C570.964,72.966,569.334,73.329,567.37,73.329z M596.678,51.481
	c1.752,0,3.286,0.337,4.604,1.01c1.349,0.675,2.398,1.696,3.15,3.07c0.753,1.373,1.135,3.112,1.135,5.21v12.317h-3.879V61.217
	c0-2.074-0.512-3.636-1.539-4.686c-0.991-1.048-2.405-1.574-4.239-1.574c-1.372,0-2.571,0.268-3.594,0.805
	c-1.025,0.541-1.815,1.333-2.382,2.386c-0.539,1.049-0.81,2.355-0.81,3.916v11.024h-3.876V51.685h3.717v5.776l-0.607-1.536
	c0.701-1.401,1.778-2.491,3.234-3.274C593.045,51.87,594.737,51.481,596.678,51.481z M626.025,73.089v-4.523l-0.205-0.849v-7.71
	c0-1.645-0.481-2.911-1.452-3.801c-0.94-0.913-2.37-1.374-4.281-1.374c-1.263,0-2.506,0.217-3.717,0.646
	c-1.212,0.403-2.23,0.955-3.069,1.657l-1.618-2.907c1.104-0.889,2.426-1.563,3.96-2.019c1.562-0.486,3.19-0.728,4.888-0.728
	c2.933,0,5.197,0.716,6.781,2.144c1.59,1.427,2.383,3.608,2.383,6.541v12.923H626.025z M618.997,73.329
	c-1.591,0-2.989-0.268-4.199-0.805c-1.186-0.54-2.104-1.282-2.748-2.225c-0.646-0.966-0.969-2.06-0.969-3.269
	c0-1.158,0.269-2.208,0.809-3.151c0.563-0.945,1.468-1.698,2.705-2.264c1.267-0.564,2.964-0.847,5.089-0.847h6.783v2.787h-6.623
	c-1.939,0-3.236,0.324-3.916,0.969c-0.67,0.646-1.008,1.428-1.008,2.341c0,1.053,0.417,1.897,1.251,2.545
	c0.836,0.621,1.988,0.931,3.476,0.931c1.453,0,2.719-0.321,3.796-0.969c1.104-0.646,1.896-1.589,2.381-2.828l0.771,2.666
	c-0.515,1.267-1.414,2.276-2.706,3.029C622.59,72.966,620.963,73.329,618.997,73.329z"/>
<path fill="#5B5A5A" d="M411.168,123.598v-28.27h11.026c2.478,0,4.591,0.391,6.342,1.172c1.75,0.78,3.095,1.909,4.038,3.393
	c0.939,1.478,1.413,3.24,1.413,5.29c0,2.047-0.474,3.81-1.413,5.291c-0.943,1.453-2.29,2.583-4.038,3.392
	c-1.751,0.78-3.864,1.17-6.342,1.17h-8.803l1.813-1.896V123.6h-4.037V123.598z M415.206,113.541l-1.813-2.016h8.681
	c2.585,0,4.536-0.552,5.856-1.656c1.346-1.104,2.02-2.667,2.02-4.686c0-2.02-0.674-3.582-2.02-4.686
	c-1.32-1.104-3.271-1.656-5.856-1.656h-8.681l1.813-2.02V113.541z M439.75,123.598V93.631h3.876v29.967H439.75L439.75,123.598z
	 M464.316,123.598v-4.521l-0.202-0.85v-7.709c0-1.645-0.482-2.911-1.454-3.8c-0.941-0.913-2.37-1.375-4.282-1.375
	c-1.262,0-2.5,0.217-3.717,0.647c-1.211,0.402-2.23,0.954-3.066,1.657l-1.617-2.907c1.104-0.89,2.422-1.563,3.957-2.021
	c1.561-0.485,3.191-0.728,4.891-0.728c2.934,0,5.194,0.716,6.778,2.144c1.591,1.428,2.388,3.608,2.388,6.541v12.922H464.316z
	 M457.288,123.84c-1.588,0-2.989-0.27-4.199-0.806c-1.184-0.54-2.102-1.282-2.745-2.224c-0.647-0.969-0.968-2.063-0.968-3.271
	c0-1.157,0.27-2.208,0.806-3.151c0.564-0.945,1.468-1.699,2.706-2.265c1.265-0.563,2.963-0.847,5.089-0.847h6.782v2.788h-6.62
	c-1.939,0-3.239,0.324-3.914,0.969c-0.674,0.644-1.01,1.428-1.01,2.341c0,1.055,0.418,1.896,1.25,2.545
	c0.837,0.621,1.991,0.932,3.475,0.932c1.452,0,2.719-0.319,3.794-0.97c1.106-0.646,1.901-1.588,2.386-2.827l0.767,2.666
	c-0.509,1.27-1.412,2.276-2.704,3.031C460.882,123.477,459.256,123.84,457.288,123.84z M482.515,123.84
	c-2.15,0-3.822-0.576-5.005-1.736c-1.188-1.154-1.781-2.813-1.781-4.965V97.508h3.881v19.469c0,1.153,0.283,2.047,0.847,2.662
	c0.597,0.62,1.43,0.93,2.504,0.93c1.212,0,2.223-0.334,3.027-1.01l1.212,2.787c-0.591,0.512-1.305,0.889-2.141,1.131
	C484.254,123.721,483.405,123.84,482.515,123.84z M472.095,105.385v-3.191h13.652v3.191H472.095z M492.453,123.598v-23.305
	c0-2.098,0.606-3.769,1.817-5.005c1.239-1.266,2.988-1.896,5.25-1.896c0.836,0,1.629,0.106,2.387,0.323
	c0.775,0.189,1.438,0.497,1.976,0.927l-1.172,2.95c-0.4-0.323-0.859-0.566-1.371-0.726c-0.515-0.188-1.051-0.284-1.613-0.284
	c-1.133,0-1.996,0.324-2.588,0.968c-0.591,0.622-0.885,1.548-0.885,2.787v2.867l0.079,1.78V123.6h-3.88V123.598z M488.821,105.385
	v-3.191h13.649v3.191H488.821z M514.978,123.84c-2.153,0-4.062-0.471-5.733-1.414c-1.67-0.941-2.991-2.23-3.958-3.875
	c-0.969-1.668-1.457-3.555-1.457-5.656c0-2.126,0.484-4.009,1.457-5.656c0.967-1.641,2.288-2.918,3.958-3.833
	c1.673-0.943,3.579-1.415,5.733-1.415c2.125,0,4.026,0.472,5.695,1.415c1.695,0.915,3.013,2.192,3.96,3.833
	c0.967,1.617,1.451,3.502,1.451,5.656c0,2.129-0.484,4.01-1.451,5.656c-0.947,1.643-2.265,2.934-3.96,3.875
	C519.004,123.369,517.103,123.84,514.978,123.84z M514.978,120.445c1.372,0,2.6-0.307,3.677-0.926
	c1.104-0.619,1.963-1.496,2.583-2.627c0.622-1.156,0.929-2.487,0.929-3.999c0-1.531-0.307-2.853-0.929-3.956
	c-0.624-1.13-1.479-2.004-2.583-2.623c-1.077-0.622-2.308-0.93-3.677-0.93c-1.372,0-2.599,0.309-3.676,0.93
	c-1.075,0.619-1.937,1.493-2.583,2.623c-0.646,1.104-0.972,2.425-0.972,3.956c0,1.511,0.324,2.843,0.972,3.999
	c0.646,1.131,1.508,2.008,2.583,2.627C512.379,120.139,513.605,120.445,514.978,120.445z M531.447,123.598V102.19h3.717v5.817
	l-0.362-1.455c0.591-1.479,1.587-2.611,2.983-3.392c1.404-0.781,3.125-1.17,5.171-1.17v3.753c-0.16-0.023-0.321-0.041-0.484-0.041
	c-0.134,0-0.269,0-0.402,0c-2.072,0-3.715,0.622-4.926,1.857c-1.211,1.237-1.814,3.029-1.814,5.374v10.663h-3.881L531.447,123.598
	L531.447,123.598z M574.513,101.991c1.723,0,3.246,0.337,4.563,1.01c1.318,0.674,2.344,1.696,3.07,3.07
	c0.752,1.372,1.134,3.112,1.134,5.209v12.317h-3.877v-11.872c0-2.075-0.486-3.636-1.456-4.686c-0.971-1.049-2.327-1.574-4.082-1.574
	c-1.291,0-2.421,0.268-3.393,0.805c-0.969,0.539-1.724,1.333-2.258,2.387c-0.515,1.049-0.771,2.354-0.771,3.916v11.023h-3.875
	v-11.872c0-2.075-0.485-3.636-1.455-4.686c-0.943-1.049-2.299-1.574-4.078-1.574c-1.267,0-2.386,0.268-3.353,0.805
	c-0.97,0.541-1.726,1.333-2.261,2.387c-0.541,1.049-0.81,2.354-0.81,3.916v11.023h-3.876v-21.404h3.714v5.693l-0.606-1.453
	c0.675-1.4,1.712-2.491,3.111-3.274c1.4-0.781,3.028-1.169,4.888-1.169c2.047,0,3.81,0.513,5.289,1.535
	c1.48,0.998,2.449,2.519,2.91,4.565l-1.577-0.647c0.646-1.641,1.777-2.961,3.395-3.956
	C570.473,102.486,572.357,101.991,574.513,101.991z M603.698,123.598v-4.521l-0.201-0.85v-7.709c0-1.645-0.485-2.911-1.455-3.8
	c-0.943-0.913-2.371-1.375-4.278-1.375c-1.268,0-2.506,0.217-3.717,0.647c-1.218,0.402-2.235,0.954-3.071,1.657l-1.613-2.907
	c1.102-0.89,2.422-1.563,3.957-2.021c1.562-0.485,3.189-0.728,4.885-0.728c2.937,0,5.198,0.716,6.788,2.144
	c1.587,1.428,2.384,3.608,2.384,6.541v12.922H603.698z M596.67,123.84c-1.59,0-2.986-0.27-4.2-0.806
	c-1.186-0.54-2.1-1.282-2.743-2.224c-0.646-0.969-0.969-2.063-0.969-3.271c0-1.157,0.269-2.208,0.807-3.151
	c0.563-0.945,1.47-1.699,2.708-2.265c1.265-0.563,2.962-0.847,5.087-0.847h6.787v2.788h-6.625c-1.938,0-3.243,0.324-3.916,0.969
	c-0.675,0.644-1.011,1.428-1.011,2.341c0,1.055,0.416,1.896,1.25,2.545c0.838,0.621,1.992,0.932,3.476,0.932
	c1.455,0,2.717-0.319,3.798-0.97c1.102-0.646,1.897-1.588,2.382-2.827l0.767,2.666c-0.514,1.27-1.41,2.276-2.705,3.031
	C600.266,123.477,598.634,123.84,596.67,123.84z"/>
<path fill="#5B5A5A" d="M422.682,168.254c-2.29,0-4.312-0.471-6.061-1.412c-1.723-0.943-3.07-2.232-4.037-3.877
	c-0.944-1.641-1.416-3.525-1.416-5.654c0-2.127,0.458-4.01,1.373-5.655c0.943-1.642,2.226-2.921,3.837-3.835
	c1.641-0.942,3.486-1.414,5.533-1.414c2.074,0,3.904,0.462,5.493,1.374c1.591,0.913,2.823,2.208,3.716,3.877
	c0.914,1.645,1.373,3.569,1.373,5.774c0,0.159-0.016,0.353-0.04,0.564c0,0.217-0.015,0.418-0.044,0.605h-18.214v-2.789h16.196
	l-1.572,0.973c0.028-1.374-0.257-2.6-0.848-3.676c-0.592-1.076-1.41-1.911-2.468-2.508c-1.021-0.617-2.222-0.925-3.593-0.925
	c-1.346,0-2.546,0.308-3.591,0.925c-1.052,0.597-1.875,1.443-2.466,2.549c-0.592,1.076-0.885,2.312-0.885,3.717v0.646
	c0,1.428,0.322,2.707,0.966,3.832c0.672,1.104,1.6,1.971,2.787,2.59s2.543,0.928,4.079,0.928c1.266,0,2.409-0.213,3.435-0.648
	c1.05-0.43,1.964-1.076,2.744-1.936l2.145,2.506c-0.972,1.126-2.183,1.988-3.639,2.578
	C426.057,167.959,424.455,168.254,422.682,168.254z M436.898,158.602v-3.351h10.861v3.351H436.898z M454.298,168.012v-28.269h4.038
	v24.756h15.305v3.513H454.298z M486.968,168.254c-2.292,0-4.311-0.471-6.059-1.412c-1.729-0.943-3.071-2.232-4.039-3.877
	c-0.944-1.641-1.416-3.525-1.416-5.654c0-2.127,0.46-4.01,1.373-5.655c0.944-1.642,2.225-2.921,3.838-3.835
	c1.642-0.942,3.486-1.414,5.533-1.414c2.069,0,3.905,0.462,5.494,1.374c1.586,0.913,2.824,2.208,3.716,3.877
	c0.913,1.645,1.374,3.569,1.374,5.774c0,0.159-0.02,0.353-0.041,0.564c0,0.217-0.016,0.418-0.042,0.605h-18.216v-2.789h16.197
	l-1.572,0.973c0.026-1.374-0.257-2.6-0.851-3.676c-0.596-1.076-1.41-1.911-2.468-2.508c-1.021-0.617-2.221-0.925-3.591-0.925
	c-1.349,0-2.545,0.308-3.591,0.925c-1.054,0.597-1.874,1.443-2.467,2.549c-0.595,1.076-0.887,2.312-0.887,3.717v0.646
	c0,1.428,0.322,2.707,0.967,3.832c0.673,1.104,1.602,1.971,2.788,2.59c1.184,0.619,2.545,0.928,4.078,0.928
	c1.268,0,2.409-0.213,3.435-0.648c1.05-0.43,1.965-1.076,2.745-1.936l2.143,2.506c-0.969,1.126-2.18,1.988-3.636,2.578
	C490.345,167.959,488.742,168.254,486.968,168.254z M514.859,168.012v-4.521l-0.2-0.848v-7.711c0-1.646-0.484-2.91-1.458-3.803
	c-0.944-0.912-2.372-1.373-4.28-1.373c-1.267,0-2.502,0.217-3.716,0.646c-1.214,0.404-2.23,0.955-3.071,1.656l-1.614-2.906
	c1.104-0.891,2.422-1.562,3.957-2.02c1.561-0.486,3.189-0.729,4.886-0.729c2.935,0,5.199,0.716,6.786,2.143
	c1.589,1.432,2.384,3.611,2.384,6.544v12.92L514.859,168.012L514.859,168.012z M507.831,168.254c-1.591,0-2.989-0.27-4.201-0.807
	c-1.184-0.539-2.098-1.279-2.744-2.225c-0.646-0.967-0.966-2.061-0.966-3.269c0-1.157,0.268-2.208,0.804-3.152
	c0.564-0.944,1.472-1.696,2.709-2.263c1.266-0.564,2.961-0.85,5.09-0.85h6.783v2.789h-6.622c-1.938,0-3.247,0.322-3.916,0.97
	c-0.674,0.646-1.011,1.427-1.011,2.34c0,1.054,0.419,1.897,1.251,2.547c0.835,0.621,1.996,0.933,3.475,0.933
	c1.456,0,2.721-0.324,3.796-0.971c1.106-0.646,1.899-1.591,2.384-2.829l0.767,2.667c-0.508,1.268-1.412,2.276-2.705,3.029
	C511.427,167.891,509.795,168.254,507.831,168.254z M525.711,168.012v-21.404h3.714v5.814l-0.362-1.455
	c0.591-1.478,1.588-2.609,2.985-3.392c1.396-0.78,3.124-1.173,5.169-1.173v3.755c-0.16-0.021-0.322-0.041-0.484-0.041
	c-0.134,0-0.268,0-0.4,0c-2.074,0-3.716,0.622-4.927,1.856c-1.212,1.239-1.816,3.03-1.816,5.373v10.662h-3.878V168.012
	L525.711,168.012z M553.426,146.405c1.749,0,3.287,0.339,4.604,1.011c1.346,0.675,2.398,1.695,3.151,3.07
	c0.752,1.371,1.129,3.111,1.129,5.21v12.314h-3.877v-11.87c0-2.074-0.51-3.638-1.534-4.687c-0.994-1.047-2.41-1.574-4.241-1.574
	c-1.371,0-2.571,0.271-3.593,0.808c-1.021,0.539-1.817,1.332-2.384,2.388c-0.537,1.047-0.808,2.352-0.808,3.914v11.022h-3.877
	v-21.402h3.717v5.774l-0.608-1.536c0.702-1.399,1.78-2.49,3.23-3.272C549.791,146.795,551.486,146.405,553.426,146.405z
	 M569.487,168.012v-21.404h3.878v21.404H569.487z M571.426,142.491c-0.756,0-1.387-0.245-1.899-0.728
	c-0.483-0.484-0.723-1.076-0.723-1.775c0-0.729,0.237-1.334,0.723-1.819c0.515-0.485,1.145-0.726,1.899-0.726
	c0.753,0,1.375,0.238,1.86,0.726c0.508,0.458,0.766,1.038,0.766,1.733c0,0.73-0.241,1.35-0.727,1.861
	C572.842,142.246,572.204,142.491,571.426,142.491z M592.198,146.405c1.747,0,3.282,0.339,4.604,1.011
	c1.345,0.675,2.396,1.695,3.149,3.07c0.755,1.371,1.133,3.111,1.133,5.21v12.314h-3.876v-11.87c0-2.074-0.515-3.638-1.535-4.687
	c-0.996-1.047-2.414-1.574-4.244-1.574c-1.371,0-2.569,0.271-3.594,0.808c-1.024,0.539-1.816,1.332-2.381,2.388
	c-0.541,1.047-0.81,2.352-0.81,3.914v11.022h-3.877v-21.402h3.716v5.774l-0.604-1.536c0.698-1.399,1.775-2.49,3.232-3.272
	C588.561,146.795,590.256,146.405,592.198,146.405z M617.629,176.09c-1.97,0-3.879-0.283-5.737-0.848
	c-1.832-0.539-3.327-1.32-4.483-2.344l1.859-2.988c0.992,0.861,2.219,1.533,3.675,2.02c1.452,0.512,2.975,0.77,4.563,0.77
	c2.528,0,4.385-0.594,5.572-1.778c1.187-1.183,1.776-2.985,1.776-5.411v-4.521l0.404-4.241l-0.2-4.282v-5.854h3.672v18.498
	c0,3.768-0.943,6.539-2.825,8.314C624.021,175.202,621.261,176.09,617.629,176.09z M617.143,167.124
	c-2.073,0-3.932-0.429-5.571-1.292c-1.618-0.889-2.911-2.114-3.88-3.676c-0.943-1.563-1.414-3.363-1.414-5.411
	c0-2.073,0.47-3.878,1.414-5.415c0.969-1.559,2.262-2.771,3.88-3.632c1.641-0.866,3.498-1.296,5.571-1.296
	c1.831,0,3.498,0.38,5.008,1.132c1.508,0.729,2.707,1.856,3.594,3.396c0.915,1.533,1.377,3.477,1.377,5.815
	c0,2.313-0.462,4.241-1.377,5.774c-0.887,1.533-2.084,2.693-3.594,3.472C620.641,166.748,618.974,167.124,617.143,167.124z
	 M617.584,163.73c1.428,0,2.694-0.291,3.8-0.889c1.104-0.594,1.964-1.41,2.583-2.462c0.646-1.051,0.967-2.262,0.967-3.636
	c0-1.378-0.321-2.585-0.967-3.637c-0.621-1.051-1.479-1.856-2.583-2.422c-1.104-0.596-2.372-0.888-3.8-0.888
	s-2.705,0.292-3.834,0.888c-1.104,0.564-1.979,1.375-2.625,2.422c-0.62,1.052-0.933,2.259-0.933,3.637
	c0,1.374,0.313,2.585,0.933,3.636c0.646,1.052,1.521,1.868,2.625,2.462C614.879,163.439,616.156,163.73,617.584,163.73z
	 M645.312,168.254c-2.157,0-4.07-0.471-5.735-1.412c-1.671-0.943-2.988-2.232-3.96-3.877c-0.971-1.668-1.455-3.555-1.455-5.654
	c0-2.127,0.484-4.01,1.455-5.655c0.972-1.642,2.289-2.921,3.96-3.835c1.665-0.942,3.578-1.414,5.735-1.414
	c2.126,0,4.022,0.472,5.69,1.414c1.699,0.914,3.018,2.193,3.961,3.835c0.969,1.614,1.455,3.5,1.455,5.655
	c0,2.129-0.486,4.012-1.455,5.654c-0.943,1.641-2.262,2.934-3.961,3.877C649.334,167.783,647.438,168.254,645.312,168.254z
	 M645.312,164.861c1.372,0,2.595-0.307,3.671-0.928c1.105-0.617,1.969-1.492,2.588-2.625c0.615-1.158,0.928-2.49,0.928-4
	c0-1.531-0.313-2.852-0.928-3.955c-0.623-1.129-1.481-2.004-2.588-2.623c-1.076-0.621-2.299-0.932-3.671-0.932
	c-1.378,0-2.599,0.311-3.677,0.932c-1.079,0.619-1.939,1.494-2.587,2.623c-0.644,1.104-0.966,2.424-0.966,3.955
	c0,1.51,0.321,2.842,0.966,4c0.646,1.133,1.508,2.008,2.587,2.625C642.713,164.555,643.934,164.861,645.312,164.861z
	 M665.709,168.012l-7.956-21.404h3.673l7.067,19.385h-1.733l7.35-19.385h3.271l7.188,19.385h-1.696l7.229-19.385h3.472
	l-7.994,21.404h-3.716l-6.743-17.691h1.127l-6.821,17.691H665.709z M710.127,168.012v-4.521l-0.206-0.848v-7.711
	c0-1.646-0.48-2.91-1.455-3.803c-0.942-0.912-2.369-1.373-4.278-1.373c-1.269,0-2.505,0.217-3.719,0.646
	c-1.211,0.404-2.229,0.955-3.069,1.656l-1.616-2.906c1.108-0.891,2.424-1.562,3.96-2.02c1.561-0.486,3.189-0.729,4.887-0.729
	c2.934,0,5.196,0.716,6.783,2.143c1.59,1.432,2.387,3.611,2.387,6.544v12.92L710.127,168.012L710.127,168.012z M703.1,168.254
	c-1.591,0-2.99-0.27-4.201-0.807c-1.186-0.539-2.1-1.279-2.746-2.225c-0.646-0.967-0.968-2.061-0.968-3.269
	c0-1.157,0.269-2.208,0.808-3.152c0.563-0.944,1.469-1.696,2.704-2.263c1.268-0.564,2.964-0.85,5.093-0.85h6.78v2.789h-6.62
	c-1.938,0-3.245,0.322-3.915,0.97c-0.675,0.646-1.01,1.427-1.01,2.34c0,1.054,0.419,1.897,1.25,2.547
	c0.838,0.621,1.991,0.933,3.477,0.933c1.451,0,2.72-0.324,3.794-0.971c1.104-0.646,1.899-1.591,2.386-2.829l0.765,2.667
	c-0.507,1.268-1.411,2.276-2.705,3.029C706.692,167.891,705.063,168.254,703.1,168.254z"/>
</svg>
